<svg width="28" height="28" viewBox="0 0 28 28" fill="none" xmlns="http://www.w3.org/2000/svg">
<path d="M14.0006 16.5826L13.982 16.5698C13.4869 16.2286 12.9948 15.8895 12.5301 15.507C12.0623 15.1221 11.4361 14.5647 10.8063 13.8758C9.5882 12.5434 8.16732 10.5143 8.16732 8.16683C8.16732 4.94517 10.779 2.3335 14.0006 2.3335C17.2223 2.3335 19.834 4.94517 19.834 8.16683C19.834 10.5145 18.4131 12.5436 17.195 13.8759C16.5652 14.5648 15.9389 15.1222 15.4711 15.5071C15.0064 15.8896 14.5144 16.2286 14.0192 16.5698L14.0006 16.5826ZM15.7506 8.16683C15.7506 7.20033 14.9671 6.41683 14.0006 6.41683C13.0342 6.41683 12.2506 7.20033 12.2506 8.16683C12.2506 9.13333 13.0342 9.91683 14.0006 9.91683C14.9671 9.91683 15.7506 9.13333 15.7506 8.16683Z" fill="#F6D659"/>
<path d="M8.16741 11.6668H3.62319L2.19727 24.5002H25.8042L24.3783 11.6668H19.8341V14.0002H22.2899L23.1973 22.1668H4.80422L5.71162 14.0002H8.16741V11.6668Z" fill="#F6D659"/>
</svg>
