<svg width="17" height="15" viewBox="0 0 17 15" fill="none" xmlns="http://www.w3.org/2000/svg">
<path fill-rule="evenodd" clip-rule="evenodd" d="M2.39062 1.23438C2.39062 1.23438 2.67188 1.51562 2.67188 1.95312V12.4531C2.67188 12.4531 2.70312 12.9219 3.17188 12.9531H15.6719C15.6719 12.9531 16.1094 12.9531 16.3906 13.2344C16.3906 13.2344 16.6719 13.5156 16.6719 13.9531C16.6719 13.9531 16.6719 14.3906 16.3906 14.6719C16.3906 14.6719 16.1094 14.9531 15.6719 14.9531H3.17188C3.17188 14.9531 2.10938 14.9219 1.39062 14.2344C1.39062 14.2344 0.703125 13.5156 0.671875 12.4531V1.95312C0.671875 1.95312 0.671875 1.51562 0.953125 1.23438C0.953125 1.23438 1.23438 0.953125 1.67188 0.953125C1.67188 0.953125 2.10938 0.953125 2.39062 1.23438ZM15.6719 3.95312C15.6719 3.95312 15.6719 4.35938 15.3906 4.67188L11.3906 8.67188C11.3906 8.67188 11.0781 8.95312 10.6719 8.95312C10.6719 8.95312 10.2656 8.95312 9.95312 8.67188L8.17188 6.85938L5.39062 9.67188C5.39062 9.67188 5.07812 9.95312 4.67188 9.95312C4.67188 9.95312 4.26562 9.95312 3.95312 9.67188C3.95312 9.67188 3.67188 9.35938 3.67188 8.95312C3.67188 8.95312 3.67188 8.54688 3.95312 8.23438L7.45312 4.73438C7.45312 4.73438 7.76562 4.45312 8.17188 4.45312C8.17188 4.45312 8.57812 4.45312 8.89062 4.73438L10.6719 6.54688L13.9531 3.23438C13.9531 3.23438 14.2656 2.95312 14.6719 2.95312C14.6719 2.95312 15.0781 2.95312 15.3906 3.23438C15.3906 3.23438 15.6719 3.54688 15.6719 3.95312Z" fill="black"/>
</svg>
