<svg width="54" height="63" viewBox="0 0 54 63" fill="none" xmlns="http://www.w3.org/2000/svg">
<path d="M53.4813 9.1287L50.5101 9.0783C50.454 9.0783 44.6989 8.946 38.819 6.5772C33.2076 4.3155 29.4749 1.7766 28.7758 1.2852L26.9906 0L25.1992 1.2915C24.5064 1.7766 20.7799 4.3155 15.1685 6.5772C9.30108 8.9397 3.53981 9.0783 3.47739 9.0783L0.5 9.1287V35.6328C0.5 48.9384 17.7277 63 26.9969 63C36.2661 63 53.5 48.9384 53.5 35.6328L53.4813 9.1287ZM47.4391 35.6328C47.4391 45.5931 32.9267 56.9898 26.9969 56.9898C21.0608 56.9898 6.5484 45.5931 6.5484 35.6328V14.868C9.27612 14.553 13.2834 13.8222 17.4468 12.1464C21.891 10.3509 25.2679 8.3979 26.9969 7.3206C29.0505 8.6058 32.315 10.4391 36.547 12.1464C40.7041 13.8222 44.7052 14.553 47.4391 14.868V35.6328ZM17.8775 31.5441L13.9638 36.1179L25.6361 45.99L42.8076 26.3529L43.0635 26.0568L38.4882 22.1193L24.987 37.5606L17.8775 31.5441Z" fill="white"/>
</svg>
