<svg width="26" height="26" viewBox="0 0 26 26" fill="none" xmlns="http://www.w3.org/2000/svg">
<path d="M10.8333 3.25H3.25V10.8333H10.8333V3.25Z" fill="#898989"/>
<path d="M10.8333 3.25H3.25V10.8333H10.8333V3.25Z" fill="white"/>
<path d="M10.8333 3.25H3.25V10.8333H10.8333V3.25Z" stroke="#898989" stroke-width="1.5" stroke-linecap="round" stroke-linejoin="round"/>
<path d="M10.8333 3.25H3.25V10.8333H10.8333V3.25Z" stroke="white" stroke-width="1.5" stroke-linecap="round" stroke-linejoin="round"/>
<path d="M10.8333 15.167H3.25V22.7503H10.8333V15.167Z" fill="#898989"/>
<path d="M10.8333 15.167H3.25V22.7503H10.8333V15.167Z" fill="white"/>
<path d="M10.8333 15.167H3.25V22.7503H10.8333V15.167Z" stroke="#898989" stroke-width="1.5" stroke-linecap="round" stroke-linejoin="round"/>
<path d="M10.8333 15.167H3.25V22.7503H10.8333V15.167Z" stroke="white" stroke-width="1.5" stroke-linecap="round" stroke-linejoin="round"/>
<path d="M22.7513 3.25H15.168V10.8333H22.7513V3.25Z" fill="#898989"/>
<path d="M22.7513 3.25H15.168V10.8333H22.7513V3.25Z" fill="white"/>
<path d="M22.7513 3.25H15.168V10.8333H22.7513V3.25Z" stroke="#898989" stroke-width="1.5" stroke-linecap="round" stroke-linejoin="round"/>
<path d="M22.7513 3.25H15.168V10.8333H22.7513V3.25Z" stroke="white" stroke-width="1.5" stroke-linecap="round" stroke-linejoin="round"/>
<path d="M15.168 15.167L22.7513 22.7503M15.168 15.167H22.7513M15.168 15.167V22.7503" stroke="#898989" stroke-width="1.5" stroke-linecap="round" stroke-linejoin="round"/>
<path d="M15.168 15.167L22.7513 22.7503M15.168 15.167H22.7513M15.168 15.167V22.7503" stroke="white" stroke-width="1.5" stroke-linecap="round" stroke-linejoin="round"/>
</svg>
