<svg width="14" height="16" viewBox="0 0 14 16" fill="none" xmlns="http://www.w3.org/2000/svg">
<path fill-rule="evenodd" clip-rule="evenodd" d="M14 6H0V14.5C0 14.5 0.03125 15.125 0.4375 15.5625C0.4375 15.5625 0.875 15.9688 1.5 16H12.5C12.5 16 13.125 15.9688 13.5625 15.5625C13.5625 15.5625 13.9688 15.125 14 14.5V6ZM4.71875 0.28125C4.71875 0.28125 4.4375 0 4 0C4 0 3.5625 0 3.28125 0.28125C3.28125 0.28125 3 0.5625 3 1V2H1.5C1.5 2 0.875 2.03125 0.4375 2.4375C0.4375 2.4375 0.03125 2.875 0 3.5V5H14V3.5C14 3.5 13.9688 2.875 13.5625 2.4375C13.5625 2.4375 13.125 2.03125 12.5 2H11V1C11 1 11 0.5625 10.7188 0.28125C10.7188 0.28125 10.4375 0 10 0C10 0 9.5625 0 9.28125 0.28125C9.28125 0.28125 9 0.5625 9 1V2H5V1C5 1 5 0.5625 4.71875 0.28125ZM2 8.5V9.5C2.03125 9.96875 2.5 10 2.5 10H3.5C3.96875 9.96875 4 9.5 4 9.5V8.5C3.96875 8.03125 3.5 8 3.5 8H2.5C2.03125 8.03125 2 8.5 2 8.5ZM6 9.5V8.5C6 8.5 6.03125 8.03125 6.5 8H7.5C7.5 8 7.96875 8.03125 8 8.5V9.5C8 9.5 7.96875 9.96875 7.5 10H6.5C6.5 10 6.03125 9.96875 6 9.5ZM10.5 8C10.0312 8.03125 10 8.5 10 8.5V9.5C10.0312 9.96875 10.5 10 10.5 10H11.5C11.9688 9.96875 12 9.5 12 9.5V8.5C11.9688 8.03125 11.5 8 11.5 8H10.5ZM2 13.5V12.5C2 12.5 2.03125 12.0312 2.5 12H3.5C3.5 12 3.96875 12.0312 4 12.5V13.5C4 13.5 3.96875 13.9688 3.5 14H2.5C2.5 14 2.03125 13.9688 2 13.5ZM6.5 12C6.03125 12.0312 6 12.5 6 12.5V13.5C6.03125 13.9688 6.5 14 6.5 14H7.5C7.96875 13.9688 8 13.5 8 13.5V12.5C7.96875 12.0312 7.5 12 7.5 12H6.5ZM10 13.5V12.5C10 12.5 10.0312 12.0312 10.5 12H11.5C11.5 12 11.9688 12.0312 12 12.5V13.5C12 13.5 11.9688 13.9688 11.5 14H10.5C10.5 14 10.0312 13.9688 10 13.5Z" fill="black"/>
</svg>
