<svg width="26" height="28" viewBox="0 0 26 28" fill="none" xmlns="http://www.w3.org/2000/svg">
<mask id="mask0_830_6219" style="mask-type:luminance" maskUnits="userSpaceOnUse" x="0" y="4" width="26" height="20">
<path d="M25.5 4H0.5V24H25.5V4Z" fill="white"/>
</mask>
<g mask="url(#mask0_830_6219)">
<path d="M4.25 9.42969C4.25 8.51822 4.47136 7.68489 4.91406 6.92969C5.35677 6.17449 5.96875 5.56248 6.75 5.09375C7.53125 4.65102 8.36459 4.42969 9.25 4.42969C10.1354 4.42969 10.9687 4.65102 11.75 5.09375C12.5313 5.56248 13.1432 6.17449 13.5859 6.92969C14.0286 7.68489 14.25 8.51822 14.25 9.42969C14.25 10.3412 14.0286 11.1745 13.5859 11.9297C13.1432 12.6849 12.5313 13.2969 11.75 13.7656C10.9687 14.2084 10.1354 14.4297 9.25 14.4297C8.36459 14.4297 7.53125 14.2084 6.75 13.7656C5.96875 13.2969 5.35677 12.6849 4.91406 11.9297C4.47136 11.1745 4.25 10.3412 4.25 9.42969ZM0.5 23.2578C0.552083 21.3047 1.22917 19.6641 2.53125 18.3359C3.85938 17.0339 5.5 16.3568 7.45312 16.3047H11.0469C13 16.3568 14.6407 17.0339 15.9688 18.3359C17.2709 19.6641 17.9479 21.3047 18 23.2578C18 23.5964 17.8828 23.8698 17.6484 24.0781C17.4401 24.3125 17.1666 24.4297 16.8281 24.4297H1.67188C1.33334 24.4297 1.0599 24.3125 0.851562 24.0781C0.617188 23.8698 0.5 23.5964 0.5 23.2578ZM20.1875 16.6172V14.1172H17.6875C17.1146 14.0651 16.8021 13.7526 16.75 13.1797C16.8021 12.6068 17.1146 12.2943 17.6875 12.2422H20.1875V9.74219C20.2396 9.16925 20.5521 8.85675 21.125 8.80469C21.6979 8.85675 22.0104 9.16925 22.0625 9.74219V12.2422H24.5625C25.1354 12.2943 25.4479 12.6068 25.5 13.1797C25.4479 13.7526 25.1354 14.0651 24.5625 14.1172H22.0625V16.6172C22.0104 17.1901 21.6979 17.5026 21.125 17.5547C20.5521 17.5026 20.2396 17.1901 20.1875 16.6172Z" fill="#333333"/>
</g>
</svg>
