<svg width="30" height="23" viewBox="0 0 30 23" fill="none" xmlns="http://www.w3.org/2000/svg">
<path d="M26.6667 2.46428C27.1875 2.49853 27.4653 2.77234 27.5 3.28572V4.92857H2.5V3.28572C2.53473 2.77234 2.8125 2.49853 3.33333 2.46428H26.6667ZM27.5 9.85714V19.7143C27.4653 20.2277 27.1875 20.5015 26.6667 20.5357H3.33333C2.8125 20.5015 2.53473 20.2277 2.5 19.7143V9.85714H27.5ZM3.33333 0C2.39584 0.0342445 1.61459 0.359383 0.989583 0.975418C0.364583 1.59153 0.0347222 2.36163 0 3.28572V19.7143C0.0347222 20.6384 0.364583 21.4085 0.989583 22.0246C1.61459 22.6406 2.39584 22.9658 3.33333 23H26.6667C27.6041 22.9658 28.3854 22.6406 29.0104 22.0246C29.6354 21.4085 29.9653 20.6384 30 19.7143V3.28572C29.9653 2.36163 29.6354 1.59153 29.0104 0.975418C28.3854 0.359383 27.6041 0.0342445 26.6667 0H3.33333ZM6.25 15.6071C5.48611 15.6756 5.06944 16.0863 5 16.8393C5.06944 17.5923 5.48611 18.003 6.25 18.0714H8.75C9.51389 18.003 9.93056 17.5923 10 16.8393C9.93056 16.0863 9.51389 15.6756 8.75 15.6071H6.25ZM12.9167 15.6071C12.1528 15.6756 11.7361 16.0863 11.6667 16.8393C11.7361 17.5923 12.1528 18.003 12.9167 18.0714H18.75C19.5139 18.003 19.9305 17.5923 20 16.8393C19.9305 16.0863 19.5139 15.6756 18.75 15.6071H12.9167Z" fill="white"/>
</svg>
