<svg width="30" height="30" viewBox="0 0 30 30" fill="none" xmlns="http://www.w3.org/2000/svg">
<path d="M30 15C29.9597 17.7823 29.2742 20.3024 27.9435 22.5605C26.6129 24.8186 24.8186 26.6129 22.5605 27.9435C20.3025 29.2742 17.7823 29.9597 15 30C12.2177 29.9597 9.69757 29.2742 7.43951 27.9435C5.18145 26.6129 3.38709 24.8186 2.05645 22.5605C0.725806 20.3024 0.0403226 17.7823 0 15C0.0403226 12.2177 0.725806 9.69755 2.05645 7.43948C3.38709 5.18142 5.18145 3.3871 7.43951 2.05652C9.69757 0.725849 12.2177 0.0403442 15 0C17.7823 0.0403442 20.3025 0.725849 22.5605 2.05652C24.8186 3.3871 26.6129 5.18142 27.9435 7.43948C29.2742 9.69755 29.9597 12.2177 30 15ZM21.4114 12.8831C21.5323 11.875 21.2903 11.0686 20.6854 10.4637C20.0403 9.89919 19.1935 9.43544 18.1452 9.07252L18.8105 6.35084L17.1774 5.98787L16.5121 8.58865C16.0685 8.4677 15.6249 8.36693 15.1814 8.28633L15.8467 5.62503L14.2137 5.20155L13.5484 7.92335C13.1855 7.84275 12.8226 7.76211 12.4597 7.68142L10.2218 7.13703L9.79839 8.8911C9.83871 8.8911 10.0403 8.93144 10.4032 9.01213C10.7258 9.09273 10.9073 9.13303 10.9476 9.13303C11.5524 9.37501 11.8145 9.69759 11.7339 10.1008L10.9476 13.1855C10.9879 13.2258 11.0484 13.2459 11.129 13.2459H11.0685C11.0282 13.2459 10.9879 13.2258 10.9476 13.1855L9.85886 17.5403C9.81855 17.8226 9.57661 17.9436 9.13306 17.9032C9.09274 17.9032 8.89113 17.8629 8.52823 17.7823C8.16532 17.7016 7.96371 17.6411 7.92338 17.6008L7.1371 19.4758L9.25404 20.0202C9.49597 20.1008 9.7379 20.1613 9.97984 20.2016C10.1411 20.2419 10.2823 20.2823 10.4032 20.3226L9.73791 23.0444L11.371 23.4677L12.0968 20.8065C12.5 20.8871 12.9234 20.9879 13.367 21.1089L12.7016 23.8306L14.3347 24.1935L15.0605 21.4718C16.4718 21.7943 17.6815 21.8145 18.6895 21.5323C19.6573 21.25 20.3831 20.504 20.867 19.2943C21.1895 18.2863 21.2097 17.4597 20.9275 16.8145C20.6049 16.1693 20.0807 15.6653 19.3548 15.3025C20.4839 15.1008 21.1694 14.2944 21.4114 12.8831ZM17.6613 18.1452C17.3387 19.0323 16.6532 19.4355 15.6049 19.3548C14.5565 19.2742 13.6693 19.1129 12.9435 18.871C12.8226 18.8306 12.7016 18.8105 12.5806 18.8105L13.4879 15.1814C13.6089 15.2218 13.75 15.2419 13.9112 15.2419C14.7178 15.4032 15.5847 15.6855 16.5121 16.0888C17.4395 16.5323 17.8226 17.2178 17.6613 18.1452ZM18.2057 12.8226C17.9234 13.629 17.3387 14.0121 16.4516 13.9717C15.5646 13.9314 14.8186 13.8105 14.2137 13.6089C14.0927 13.5686 13.9919 13.5282 13.9112 13.4879L14.7581 10.2218C14.8387 10.2622 14.9395 10.2823 15.0605 10.2823C15.746 10.4033 16.4718 10.6452 17.2379 11.008C18.004 11.3709 18.3266 11.9758 18.2057 12.8226Z" fill="white"/>
</svg>
