<svg width="20" height="28" viewBox="0 0 20 28" fill="none" xmlns="http://www.w3.org/2000/svg">
<mask id="mask0_830_6241" style="mask-type:luminance" maskUnits="userSpaceOnUse" x="0" y="4" width="20" height="20">
<path d="M20 4H0V24H20V4Z" fill="white"/>
</mask>
<g mask="url(#mask0_830_6241)">
<path d="M20 7.55469C19.9739 8.25782 19.4792 8.88282 18.5156 9.42969C17.3178 10.0808 15.7161 10.4844 13.7109 10.6406C13.5807 10.5626 13.4375 10.4974 13.2812 10.4453C11.6927 9.79431 9.7656 9.45575 7.5 9.42969C7.1875 9.42969 6.875 9.44268 6.5625 9.46875L6.48438 9.42969C5.52083 8.88282 5.02604 8.25782 5 7.55469C5.05208 6.66929 5.78125 5.92712 7.1875 5.32812C8.59375 4.75526 10.3646 4.45575 12.5 4.42969C14.6354 4.45575 16.4062 4.75526 17.8125 5.32812C19.2188 5.92712 19.9479 6.66929 20 7.55469ZM6.28906 10.7188C6.67969 10.6927 7.08333 10.6797 7.5 10.6797C8.72396 10.6797 9.84373 10.7969 10.8594 11.0312C11.901 11.2396 12.7735 11.5261 13.4766 11.8906C14.4662 12.4375 14.9739 13.0755 15 13.8047C15 13.961 14.9739 14.1172 14.9219 14.2734C14.7135 14.7942 14.2578 15.25 13.5547 15.6406C13.5286 15.6667 13.5156 15.6797 13.5156 15.6797C12.8125 16.0703 11.94 16.3698 10.8984 16.5781C9.88278 16.8125 8.75 16.9297 7.5 16.9297C5.10417 16.9036 3.17708 16.526 1.71875 15.7969C1.64062 15.7448 1.56249 15.7057 1.48438 15.6797C0.52083 15.1328 0.0260417 14.5078 0 13.8047C0.0260417 13.1016 0.494792 12.4895 1.40625 11.9688C2.31771 11.4479 3.51563 11.0833 5 10.875C5.41667 10.7969 5.84636 10.7448 6.28906 10.7188ZM16.25 13.8047C16.1979 12.9453 15.8854 12.2552 15.3125 11.7344C16.4323 11.552 17.4219 11.2786 18.2812 10.9141C18.9323 10.6537 19.5052 10.3282 20 9.9375V11.3047C19.9739 12.086 19.401 12.75 18.2812 13.2969C17.7083 13.5833 17.0313 13.8177 16.25 14C16.25 13.9479 16.25 13.8828 16.25 13.8047ZM15 17.5547C14.9739 18.2578 14.4792 18.8828 13.5156 19.4297C13.4636 19.4557 13.4114 19.4818 13.3594 19.5078C13.3333 19.5078 13.3073 19.5208 13.2812 19.5469C11.8229 20.276 9.89587 20.6536 7.5 20.6797C6.25 20.6797 5.11719 20.5625 4.10156 20.3281C3.0599 20.1198 2.18749 19.8203 1.48438 19.4297C0.52083 18.8828 0.0260417 18.2578 0 17.5547V16.1875C0.494792 16.5781 1.06771 16.9036 1.71875 17.1641C3.30729 17.8151 5.23437 18.1536 7.5 18.1797C9.7656 18.1536 11.6927 17.8151 13.2812 17.1641C13.5937 17.0338 13.8932 16.8906 14.1797 16.7344C14.414 16.6042 14.6354 16.4609 14.8438 16.3047C14.8698 16.2786 14.9088 16.2526 14.9609 16.2266C14.9609 16.2005 14.9739 16.1875 15 16.1875V16.3047V16.5391V17.5547ZM16.25 17.5547V16.3047V15.2891C17.0052 15.1328 17.6823 14.9245 18.2812 14.6641C18.9323 14.4037 19.5052 14.0782 20 13.6875V15.0547C20 15.4714 19.8047 15.875 19.4141 16.2656C18.737 16.9167 17.6823 17.4115 16.25 17.75C16.25 17.6979 16.25 17.6328 16.25 17.5547ZM7.5 21.9297C9.7656 21.9036 11.6927 21.5651 13.2812 20.9141C13.9323 20.6536 14.5052 20.3281 15 19.9375V21.3047C14.9479 22.1901 14.2188 22.9323 12.8125 23.5312C11.4062 24.1042 9.6354 24.4036 7.5 24.4297C5.36459 24.4036 3.59375 24.1042 2.1875 23.5312C0.78125 22.9323 0.0520833 22.1901 0 21.3047V19.9375C0.494792 20.3281 1.06771 20.6536 1.71875 20.9141C3.30729 21.5651 5.23437 21.9036 7.5 21.9297Z" fill="#333333"/>
</g>
</svg>
