<svg width="12" height="17" viewBox="0 0 12 17" fill="none" xmlns="http://www.w3.org/2000/svg">
<path d="M2 0.953125C1.15625 0.984375 0.59375 1.54688 0.59375 1.54688C0.03125 2.10938 0 2.95312 0 2.95312V14.9531C0.03125 15.7969 0.59375 16.3594 0.59375 16.3594C1.15625 16.9219 2 16.9531 2 16.9531H10C10.8438 16.9219 11.4062 16.3594 11.4062 16.3594C11.9688 15.7969 12 14.9531 12 14.9531V5.95312H8C7.5625 5.95312 7.28125 5.67188 7.28125 5.67188C7 5.39062 7 4.95312 7 4.95312V0.953125H2Z" fill="black"/>
<path d="M8 0.953125V4.95312V0.953125V4.95312H12L8 0.953125Z" fill="black"/>
<path d="M6.74913 8.20302V11.3905L7.71788 10.4218C8.24913 9.98427 8.78038 10.4218 8.78038 10.4218C9.21788 10.953 8.78038 11.4843 8.78038 11.4843L6.53038 13.7343C5.99913 14.1718 5.46788 13.7343 5.46788 13.7343L3.21788 11.4843C2.78038 10.953 3.21788 10.4218 3.21788 10.4218C3.74913 9.98427 4.28038 10.4218 4.28038 10.4218L5.24913 11.3905V8.20302C5.31163 7.51552 5.99913 7.45302 5.99913 7.45302C6.68663 7.51552 6.74913 8.20302 6.74913 8.20302Z" fill="#F6D659"/>
</svg>
