<svg width="62" height="68" viewBox="0 0 62 68" fill="none" xmlns="http://www.w3.org/2000/svg">
<path d="M15.6367 30.4824H46.4634V48.0491H15.6367V30.4824Z" fill="white"/>
<path d="M46.7719 1.2949V0L36.8722 9.96219H36.96C47.6982 12.6435 55.6575 22.4087 55.6575 34.0442C55.6575 47.4026 45.1659 58.2952 32.0202 58.8349L26.2049 64.686C27.7662 64.931 29.3676 65.0582 30.9983 65.0582C48.0219 65.0582 61.8242 51.1725 61.8242 34.0426C61.8242 22.7142 55.7854 12.8048 46.7719 7.391V1.2949ZM14.135 68V60.0104C5.72571 54.471 0.170879 44.9105 0.170879 34.0442C0.170879 16.9143 13.9716 3.02867 30.9968 3.02867C32.2761 3.02867 33.5368 3.10621 34.776 3.25818L28.7372 9.33412C16.1757 10.4817 6.33606 21.1061 6.33606 34.0442C6.33606 45.3649 13.873 54.9177 24.1765 57.8951L14.1335 67.9985L14.135 68Z" fill="white"/>
<path d="M13.6523 30.4871C13.6523 30.0212 13.8553 29.5744 14.2167 29.245C14.578 28.9155 15.068 28.7305 15.579 28.7305H46.4057C46.9167 28.7305 47.4067 28.9155 47.768 29.245C48.1293 29.5744 48.3323 30.0212 48.3323 30.4871V48.0538C48.3323 48.5197 48.1293 48.9665 47.768 49.2959C47.4067 49.6254 46.9167 49.8105 46.4057 49.8105H15.579C15.068 49.8105 14.578 49.6254 14.2167 49.2959C13.8553 48.9665 13.6523 48.5197 13.6523 48.0538V30.4871ZM17.5057 32.2438V46.2971H44.479V32.2438H17.5057Z" fill="white"/>
<path d="M19.4258 25.2128C19.4258 22.4175 20.6437 19.7366 22.8116 17.7599C24.9795 15.7833 27.9199 14.6729 30.9858 14.6729C34.0517 14.6729 36.992 15.7833 39.1599 17.7599C41.3279 19.7366 42.5458 22.4175 42.5458 25.2128V37.5095H19.4258V25.2128ZM30.9858 21.6995C29.9638 21.6995 28.9837 22.0697 28.2611 22.7285C27.5384 23.3874 27.1324 24.2811 27.1324 25.2128V30.4828H34.8391V25.2128C34.8391 24.2811 34.4331 23.3874 33.7105 22.7285C32.9879 22.0697 32.0077 21.6995 30.9858 21.6995Z" fill="white"/>
<path d="M27.168 44.75V37H34.1805V44.75H27.168Z" fill="white"/>
</svg>
