<svg width="58" height="62" viewBox="0 0 58 62" fill="none" xmlns="http://www.w3.org/2000/svg">
<path d="M25.9785 16.7959C27.288 16.5372 28.6267 16.4473 29.959 16.5293L30.5293 16.5752C31.5247 16.6729 32.5077 16.8669 33.4629 17.1543C34.3967 17.4352 35.2995 17.8041 36.1582 18.2559L36.1592 18.2568C37.0061 18.7019 37.8069 19.2241 38.5498 19.8174C39.6605 20.7053 40.6332 21.7427 41.4395 22.8965C41.9137 23.5755 42.3276 24.2919 42.6758 25.0381L42.8213 25.3604C43.0123 25.7966 43.181 26.242 43.3262 26.6943C43.4733 27.1518 43.5962 27.6166 43.6953 28.0859C43.8975 29.0451 43.9998 30.0213 44 31C43.9998 31.9787 43.8976 32.955 43.6953 33.9141C43.5228 34.7314 43.2772 35.5327 42.9609 36.3086L42.8213 36.6396C42.6325 37.0721 42.4212 37.4956 42.1895 37.9082C41.9594 38.318 41.7091 38.7169 41.4395 39.1035C40.9695 39.7763 40.4422 40.4101 39.8633 40.998L39.6123 41.2471C39.2734 41.5744 38.9189 41.8863 38.5498 42.1816C37.8068 42.7749 37.0061 43.298 36.1592 43.7432L36.1582 43.7441C35.2995 44.1959 34.3967 44.5648 33.4629 44.8457H33.4619C32.9881 44.9885 32.5068 45.1089 32.0205 45.2051C31.6509 45.2781 31.2785 45.3378 30.9043 45.3838L30.5293 45.4248C30.0209 45.4746 29.5104 45.5 29 45.5C28.4895 45.5 27.9785 45.4747 27.4707 45.4248C26.9702 45.3756 26.4716 45.3025 25.9785 45.2051C25.4921 45.1088 25.0111 44.9885 24.5371 44.8457H24.5361C24.1847 44.74 23.8374 44.6217 23.4951 44.4912L23.1543 44.3564C22.3729 44.036 21.6212 43.6525 20.9072 43.21L20.6035 43.0166C20.2055 42.7562 19.8198 42.4773 19.4492 42.1816C19.1727 41.9603 18.9043 41.7296 18.6445 41.4902L18.3867 41.2471C18.0484 40.9192 17.7258 40.5758 17.4209 40.2188C17.1159 39.8605 16.8282 39.4879 16.5596 39.1035C16.3575 38.8137 16.1664 38.5168 15.9863 38.2139L15.8096 37.9082C15.636 37.5985 15.4742 37.2828 15.3242 36.9619L15.1787 36.6396C15.0357 36.3123 14.9049 35.9801 14.7871 35.6436L14.6738 35.3057C14.5269 34.848 14.4038 34.3835 14.3047 33.9141C14.2038 33.4389 14.1277 32.9585 14.0771 32.4756V32.4746C14.0253 31.985 14 31.4923 14 31L14.0107 30.4531C14.0598 29.1784 14.2823 27.9144 14.6738 26.6943C14.9638 25.7932 15.3431 24.9207 15.8086 24.0908L15.8096 24.0918C16.04 23.6821 16.2898 23.2822 16.5596 22.8955L16.5605 22.8965C16.8292 22.5118 17.1157 22.1386 17.4209 21.7803L17.4219 21.7812C17.7269 21.424 18.0482 21.0799 18.3867 20.752L18.3877 20.7529C18.6418 20.5072 18.9043 20.2697 19.1758 20.042L19.4502 19.8174C20.4296 19.0355 21.5073 18.3771 22.6572 17.8574L23.1543 17.6436C23.6063 17.4587 24.0674 17.2953 24.5361 17.1543H24.5371C25.011 17.0115 25.4921 16.892 25.9785 16.7959ZM28.999 20.665C23.126 20.6653 18.3362 25.2767 18.3359 31C18.3359 36.723 23.1258 41.3357 28.999 41.3359C34.873 41.3359 39.6632 36.7232 39.6631 31C39.6629 25.2765 34.8727 20.665 28.999 20.665Z" fill="white" stroke="white"/>
<path d="M29 0.700195C30.6446 0.700195 32.2609 1.12836 33.6855 1.94141C39.8278 5.44674 45.9701 8.95158 52.1123 12.457C53.5369 13.27 54.7209 14.4397 55.5439 15.8486C56.3668 17.2575 56.7997 18.8561 56.7998 20.4834V41.5166C56.7997 43.1439 56.3668 44.7425 55.5439 46.1514C54.7209 47.5603 53.5369 48.73 52.1123 49.543C45.97 53.0484 39.8278 56.5531 33.6855 60.0586C32.2609 60.8717 30.6446 61.2998 29 61.2998C27.3555 61.2998 25.74 60.8716 24.3154 60.0586C18.1723 56.5527 12.0308 53.0489 5.8877 49.543C2.98822 47.8881 1.2003 44.8289 1.2002 41.5166V20.4834C1.20033 18.856 1.63397 17.2576 2.45703 15.8486C3.28006 14.4398 4.46313 13.27 5.8877 12.457C12.0302 8.95147 18.1731 5.44695 24.3154 1.94141C25.74 1.12842 27.3555 0.700242 29 0.700195ZM29 5.7998C28.2586 5.79982 27.5303 5.9931 26.8887 6.35938C20.7463 9.86434 14.6042 13.3699 8.46191 16.875C7.82025 17.2412 7.28797 17.7679 6.91797 18.4014C6.54809 19.0347 6.3536 19.7526 6.35352 20.4834V41.5166C6.35355 42.2474 6.54803 42.9654 6.91797 43.5986C7.28795 44.2319 7.82031 44.758 8.46191 45.124C14.6043 48.6296 20.7464 52.1355 26.8887 55.6406C27.5303 56.0069 28.2586 56.2002 29 56.2002C29.7414 56.2002 30.4697 56.007 31.1113 55.6406C37.2541 52.1355 43.3968 48.6296 49.5391 45.124C50.1805 44.7579 50.7131 44.2319 51.083 43.5986C51.4529 42.9654 51.6474 42.2473 51.6475 41.5166V20.4834C51.6474 19.7527 51.4528 19.0346 51.083 18.4014C50.7131 17.768 50.1806 17.2413 49.5391 16.875C43.3967 13.3699 37.2541 9.86447 31.1113 6.35938C30.4697 5.99308 29.7414 5.7998 29 5.7998Z" fill="white" stroke="white" stroke-width="0.6"/>
</svg>
