<svg width="48" height="62" viewBox="0 0 48 62" fill="none" xmlns="http://www.w3.org/2000/svg">
<path d="M41.1426 62H6.85718C3.06996 62 0 58.9155 0 55.1111V30.9999C0 27.1954 3.06984 24.1114 6.85718 24.1114V15.5002C6.85718 6.93988 13.7646 0 22.2856 0H25.7137C34.2348 0 41.1428 6.93988 41.1428 15.5002V17.2221H34.2853V15.5003C34.2853 10.7443 30.4481 6.88922 25.7137 6.88922H22.2856C17.5519 6.88922 13.7143 10.7442 13.7143 15.5002V24.1114H41.1429C44.9297 24.1114 48 27.1955 48 30.9999V55.1111C47.9998 58.9155 44.9295 62 41.1426 62ZM41.1426 34.4446C41.1426 32.5422 39.6073 30.9999 37.7141 30.9999H10.2855C8.39194 30.9999 6.85706 32.5422 6.85706 34.4446V51.6667C6.85706 53.5687 8.39207 55.1111 10.2855 55.1111H37.7141C39.6075 55.1111 41.1427 53.5686 41.1427 51.6667L41.1426 34.4446ZM27.4285 47.2665V49.9446C27.4285 50.8956 26.6608 51.6667 25.7137 51.6667H22.2856C21.3387 51.6667 20.5714 50.8956 20.5714 49.9446V47.2667C18.5304 46.0734 17.1429 43.8768 17.1429 41.3334C17.1429 37.5287 20.2127 34.4446 23.9999 34.4446C27.7869 34.4446 30.8571 37.5289 30.8571 41.3334C30.8569 43.8769 29.4695 46.0734 27.4285 47.2665Z" fill="white"/>
</svg>
