<svg width="46" height="62" viewBox="0 0 46 62" fill="none" xmlns="http://www.w3.org/2000/svg">
<path d="M32.8785 0.00147605C35.65 0.00147605 37.1263 0.293755 38.6644 1.13812C40.0914 1.91693 41.2589 3.1163 42.0167 4.58199C42.7915 6.06847 43.0891 7.49887 43.1221 10.0349L43.125 10.522V25.0961C43.1283 25.8622 42.8415 26.5996 42.3252 27.1526C41.8089 27.7056 41.1034 28.0308 40.3579 28.0596C39.6124 28.0883 38.8852 27.8183 38.3299 27.3067C37.7746 26.795 37.4348 26.0817 37.3822 25.3175L37.375 25.0961V10.1722L37.3621 9.55811L37.3391 9.04736C37.2959 8.35061 37.2054 7.9491 37.0559 7.59629L36.9466 7.36749C36.7244 6.93068 36.3772 6.57421 35.9519 6.34599L35.7291 6.2338C35.3855 6.08028 34.9945 5.98876 34.316 5.943L33.8186 5.91938L33.2206 5.9061H9.90438L9.30638 5.91791L8.809 5.94152C8.1305 5.98581 7.7395 6.07881 7.39594 6.23233L7.17313 6.34451C6.73613 6.58365 6.41125 6.91726 6.17838 7.36602L6.06913 7.59482C5.91962 7.94762 5.8305 8.34913 5.78594 9.04588L5.76294 9.55663L5.75 10.1722V51.8293L5.7615 52.4434L5.7845 52.9541C5.82763 53.6509 5.91819 54.0524 6.06769 54.4052L6.17694 54.634C6.40981 55.0827 6.73469 55.4164 7.17169 55.6555L7.3945 55.7677C7.73806 55.9212 8.12906 56.0127 8.80756 56.0585L9.30494 56.0821L9.90294 56.0939L13.6562 56.0954C14.4023 56.0919 15.1204 56.3865 15.6589 56.9167C16.1974 57.4469 16.5141 58.1713 16.5421 58.9369C16.5701 59.7025 16.3072 60.4492 15.8089 61.0194C15.3107 61.5896 14.6161 61.9386 13.8719 61.9926L13.6562 62H10.2465C7.475 62 5.99869 61.7077 4.46056 60.8634C3.03358 60.0845 1.86612 58.8852 1.10831 57.4195C0.3335 55.933 0.0359372 54.5026 0.00287479 51.9666L0 51.4794V10.522C0 7.67601 0.284625 6.16 1.10687 4.58051C1.86529 3.11516 3.03326 1.9163 4.46056 1.13812C5.90812 0.342468 7.30106 0.0369037 9.77069 0.0029521L10.2451 0H32.8785V0.00147605ZM43.1193 48.7146C45.6061 48.7146 46.8855 51.7112 45.3043 53.5859L45.1519 53.7542L37.9644 61.135C37.4402 61.6719 36.7345 61.9805 35.9943 61.9964C35.254 62.0124 34.5364 61.7345 33.9907 61.2206C33.4451 60.7067 33.1135 59.9964 33.0651 59.2377C33.0167 58.4791 33.2552 57.7305 33.7309 57.1479L33.8991 56.9604L36.1776 54.6192H22.9943C22.2689 54.6195 21.5703 54.3382 21.0385 53.8317C20.5066 53.3252 20.1808 52.6311 20.1264 51.8883L20.1193 51.6669C20.119 50.9221 20.393 50.2047 20.8862 49.6585C21.3793 49.1124 22.0553 48.7778 22.7786 48.722L22.9943 48.7146H43.1193ZM32.2201 31.8658C32.7289 32.3882 33.0285 33.0875 33.0596 33.8257C33.0908 34.5639 32.8512 35.2872 32.3883 35.8529L32.2201 36.0403L29.9403 38.3815H43.125C43.8503 38.3813 44.5489 38.6626 45.0808 39.169C45.6126 39.6755 45.9384 40.3697 45.9928 41.1124L46 41.3338C46.0002 42.0787 45.7263 42.7961 45.2331 43.3422C44.7399 43.8884 44.0639 44.2229 43.3406 44.2788L43.125 44.2861H23C20.5131 44.2861 19.2338 41.2895 20.815 39.4148L20.9674 39.2465L28.1549 31.8658C28.694 31.3123 29.4252 31.0014 30.1875 31.0014C30.9498 31.0014 31.681 31.3123 32.2201 31.8658Z" fill="white"/>
</svg>
