<svg width="66" height="65" viewBox="0 0 66 65" fill="none" xmlns="http://www.w3.org/2000/svg">
<path d="M36.6172 25.5791C37.3813 25.5634 38.1215 25.8525 38.6826 26.3848L38.6855 26.3877L38.9482 26.666C44.3601 32.5651 43.5271 42.3368 37.3369 48.708L27.9033 58.416C21.6136 64.8951 11.9099 65.679 6.20215 59.8047C0.496619 53.9386 1.25697 43.9509 7.5459 37.4785L16.9785 27.7705C17.5329 27.1992 18.2855 26.8766 19.0713 26.876C19.8573 26.8754 20.6108 27.1969 21.166 27.7676C21.7212 28.3381 22.0336 29.1117 22.0342 29.918C22.0347 30.7242 21.7233 31.498 21.1689 32.0693L11.7363 41.7773C7.60567 46.0285 7.16078 52.1848 10.3877 55.5059C13.6121 58.824 19.5887 58.3677 23.7188 54.1172L33.1514 44.4092C37.2762 40.158 37.7213 34.0017 34.5 30.6807L34.4971 30.6777C33.9811 30.0998 33.7025 29.3393 33.7188 28.5557C33.7351 27.7718 34.0451 27.0236 34.585 26.4688C35.1249 25.9139 35.8531 25.5949 36.6172 25.5791Z" fill="white" stroke="white" stroke-width="0.2"/>
<path d="M38.9805 6.7998C45.2703 0.491315 54.9724 -0.270988 60.6797 5.44824C66.3867 11.1616 65.6264 20.8896 59.3369 27.1924L49.9033 36.6445C49.3487 37.2011 48.5965 37.514 47.8115 37.5146C47.0264 37.5152 46.2733 37.2033 45.7178 36.6475C45.1623 36.0916 44.8492 35.3373 44.8486 34.5508C44.8482 33.7644 45.1603 33.0097 45.7148 32.4531L55.1475 23.001C59.2775 18.8623 59.7211 12.8714 56.4961 9.63965C53.2712 6.40812 47.2931 6.85257 43.1631 10.9912L33.7305 20.4443C29.7353 24.4537 29.1939 30.2007 32.0908 33.4941L32.3818 33.8057L32.3848 33.8086C32.9012 34.3718 33.1804 35.1133 33.1641 35.8779C33.1477 36.6426 32.837 37.3716 32.2969 37.9121C31.7568 38.4526 31.0288 38.7629 30.2656 38.7783C29.5024 38.7936 28.7625 38.5125 28.2012 37.9941L28.1982 37.9912C22.4968 32.2721 23.2571 22.5491 29.5469 16.252L38.9805 6.7998Z" fill="white" stroke="white" stroke-width="0.2"/>
</svg>
