<svg width="41" height="40" viewBox="0 0 41 40" fill="none" xmlns="http://www.w3.org/2000/svg">
<g clip-path="url(#clip0_1031_5882)">
<path d="M4.64157 12.8C4.64157 5.73333 10.1429 0 16.8946 0V3.6C12.0184 3.6 8.0174 7.73333 8.0174 12.8V12.9333H12.1434L6.392 18.9333L0.765625 12.9333L4.64157 12.8ZM36.7744 27.0667C36.7744 34.1333 31.2731 39.8667 24.5214 39.8667V36.2667C29.3976 36.2667 33.3986 32.1333 33.3986 27.0667V26.9333H29.2726L35.024 20.9333L40.7754 26.9333L36.7744 27.0667ZM20.7705 27.0667C20.7705 24.5333 18.77 22.4 16.2694 22.4H5.26672C2.76611 22.4 0.765625 24.5333 0.765625 27.0667V35.2C0.765625 37.7333 2.76611 39.8667 5.26672 39.8667H16.3944C18.8951 39.8667 20.7705 37.7333 20.7705 35.2V27.0667ZM16.8946 34.6667C16.8946 35.3333 16.3944 35.8667 15.7693 35.8667H5.76685C5.14169 35.8667 4.64157 35.3333 4.64157 34.6667V27.7333C4.64157 27.0667 5.14169 26.5333 5.76685 26.5333H15.7693C16.3944 26.5333 16.8946 27.0667 16.8946 27.7333V34.6667ZM40.5253 4.66667C40.5253 2.13333 38.5248 0 36.1493 0H25.0215C22.5209 0 20.5204 2.13333 20.5204 4.66667V12.8C20.5204 15.3333 22.5209 17.4667 25.0215 17.4667H36.1493C38.6499 17.4667 40.5253 15.3333 40.5253 12.8V4.66667ZM36.5244 12.1333C36.5244 12.8 36.0242 13.3333 35.3991 13.3333H25.5217C24.8965 13.3333 24.3964 12.8 24.3964 12.1333V5.2C24.3964 4.53333 24.8965 4 25.5217 4H35.5241C36.1493 4 36.6494 4.53333 36.6494 5.2L36.5244 12.1333Z" fill="white"/>
</g>
<defs>
<clipPath id="clip0_1031_5882">
<rect width="40" height="40" fill="white" transform="translate(0.765625)"/>
</clipPath>
</defs>
</svg>
