<svg width="23" height="30" viewBox="0 0 23 30" fill="none" xmlns="http://www.w3.org/2000/svg">
<path fill-rule="evenodd" clip-rule="evenodd" d="M3.75 0C2.16797 0.0585938 1.11328 1.11328 1.11328 1.11328C0.0585938 2.16797 0 3.75 0 3.75V26.25C0.0585938 27.832 1.11328 28.8867 1.11328 28.8867C2.16797 29.9414 3.75 30 3.75 30H18.75C20.332 29.9414 21.3867 28.8867 21.3867 28.8867C22.4414 27.832 22.5 26.25 22.5 26.25V9.375H15C14.1797 9.375 13.6523 8.84766 13.6523 8.84766C13.125 8.32031 13.125 7.5 13.125 7.5V0H3.75ZM4.6875 3.75C4.6875 3.75 3.80859 3.80859 3.75 4.6875C3.75 4.6875 3.80859 5.56641 4.6875 5.625H8.4375C8.4375 5.625 9.31641 5.56641 9.375 4.6875C9.375 4.6875 9.31641 3.80859 8.4375 3.75H4.6875ZM3.75 8.4375C3.80859 7.55859 4.6875 7.5 4.6875 7.5H8.4375C9.31641 7.55859 9.375 8.4375 9.375 8.4375C9.31641 9.31641 8.4375 9.375 8.4375 9.375H4.6875C3.80859 9.31641 3.75 8.4375 3.75 8.4375ZM12.1875 13.5938C12.1875 13.5938 12.1289 12.7148 11.25 12.6562C11.25 12.6562 10.3711 12.7148 10.3125 13.5938V14.5898C10.3125 14.5898 9.55078 14.707 8.90625 15.1172C8.90625 15.1172 7.61719 15.7617 7.5 17.4609C7.5 17.4609 7.67578 19.043 8.84766 19.6875C8.84766 19.6875 9.84375 20.2148 10.8984 20.4492L10.957 20.5078C10.957 20.5078 12.0703 20.8008 12.6562 21.1523C12.6562 21.1523 13.125 21.4453 13.125 21.8555C13.125 21.8555 13.125 22.3828 12.6562 22.6758C12.6562 22.6758 12.1289 22.9688 11.25 22.9688C11.25 22.9688 10.3125 22.9102 9.19922 22.5C9.19922 22.5 9.19922 22.4414 9.14062 22.4414C9.14062 22.4414 8.96484 22.3828 8.73047 22.3242C8.73047 22.3242 7.91016 22.1484 7.55859 22.9102C7.55859 22.9102 7.32422 23.7305 8.14453 24.082L8.49609 24.1992C8.49609 24.1992 9.31641 24.5508 10.3125 24.7266V25.7812C10.3125 25.7812 10.3711 26.6602 11.25 26.7188C11.25 26.7188 12.1289 26.6602 12.1875 25.7812V24.7852C12.1875 24.7852 12.9492 24.668 13.6523 24.2578C13.6523 24.2578 14.9414 23.4961 15 21.7969C15 21.7969 14.8828 20.2148 13.6523 19.5703C13.6523 19.5703 12.5977 18.9844 11.543 18.6914C11.543 18.6914 10.4297 18.3984 9.78516 18.0469C9.78516 18.0469 9.31641 17.7539 9.375 17.4609C9.375 17.4609 9.375 16.9922 9.84375 16.7578C9.84375 16.7578 10.4297 16.4062 11.25 16.4062C11.25 16.4062 12.1289 16.4062 13.125 16.6992C13.125 16.6992 13.9453 16.875 14.2383 16.0547C14.2383 16.0547 14.4141 15.1758 13.5938 14.8828C13.5938 14.8828 12.9492 14.707 12.1875 14.5898V13.5938ZM22.5 7.5L15 0V7.5H22.5Z" fill="#F6D659"/>
</svg>
