<svg width="28" height="28" viewBox="0 0 28 28" fill="none" xmlns="http://www.w3.org/2000/svg">
<path d="M14.7555 22.7502H14.7147C14.4639 22.511 13.233 21.251 13.0522 20.1077C12.848 18.8419 15.4614 16.8469 15.4614 16.8469L15.648 15.9427C15.2689 15.7677 15.0122 15.6394 14.8605 15.5635V14.1635C15.3648 13.6217 15.6765 12.9287 15.7472 12.1919C16.1322 12.046 16.383 11.556 16.4239 10.821C16.4198 10.7433 16.4198 10.6654 16.4239 10.5877C16.4939 9.89354 16.5289 9.28687 16.2372 8.94854C16.215 8.91859 16.1896 8.8912 16.1614 8.86687C16.2547 8.26493 16.2937 7.65581 16.278 7.04688C16.2022 6.25938 15.6947 3.67521 12.2822 3.54688C11.3132 3.56465 10.3822 3.92648 9.65546 4.56768C8.92876 5.20889 8.45381 6.08765 8.31553 7.04688C8.2938 7.65549 8.32895 8.2648 8.42053 8.86687C8.3923 8.8912 8.36686 8.91859 8.34469 8.94854C8.05303 9.28687 8.08803 9.88771 8.15803 10.5819V10.821C8.20469 11.556 8.44969 12.046 8.83469 12.1977C8.91078 12.9222 9.2175 13.6031 9.70969 14.1402V15.5519C9.42386 15.6977 8.81136 16.0069 7.62136 16.526C7.16193 16.7539 6.6731 16.9168 6.16886 17.0102C5.66257 17.0995 5.17768 17.2835 4.73969 17.5527C2.65136 18.6669 2.19053 20.8777 2.09136 21.8344C2.03205 22.1387 2.03205 22.4517 2.09136 22.756C2.20957 23.0084 2.39527 23.2232 2.62794 23.3766C2.8606 23.53 3.13116 23.616 3.40969 23.6252H14.7555V22.7502Z" fill="#F6D659"/>
<path d="M25.9006 19.343C25.8883 19.3229 25.8724 19.3051 25.8539 19.2905L25.3347 18.7714L20.2772 13.7139L20.1839 13.813L20.1547 13.7839L15.1672 18.7714L14.6306 19.3022C14.606 19.3266 14.5866 19.3557 14.5736 19.3878C14.5605 19.4199 14.5541 19.4542 14.5547 19.4889C14.5547 19.5616 14.5836 19.6313 14.635 19.6827C14.6864 19.7341 14.7562 19.763 14.8289 19.763H16.4914V24.4997H24.1914V19.7747H25.6672C25.7379 19.7732 25.8053 19.7445 25.8553 19.6945C25.9053 19.6445 25.9341 19.5771 25.9356 19.5064C25.9429 19.4495 25.9305 19.3919 25.9006 19.343Z" fill="#F6D659"/>
</svg>
