<svg width="27" height="30" viewBox="0 0 27 30" fill="none" xmlns="http://www.w3.org/2000/svg">
<path fill-rule="evenodd" clip-rule="evenodd" d="M12.2461 21.0352L11.1914 19.2188C11.1914 19.2188 10.8984 18.75 11.1328 18.2812C11.1328 18.2812 11.4258 17.8711 11.9531 17.8125H13.125H14.2969C14.2969 17.8125 14.8242 17.8711 15.1172 18.2812C15.1172 18.2812 15.3516 18.75 15.1172 19.2188L14.0039 21.0352L15.9375 28.3008L18.0469 19.6875C18.0469 19.6875 18.3398 18.9258 19.1016 19.043C19.1016 19.043 22.2656 19.8633 24.1992 22.3242C24.1992 22.3242 26.1914 24.8438 26.25 28.1836C26.25 28.1836 26.25 28.9453 25.7227 29.4727C25.7227 29.4727 25.1953 30 24.4336 30H16.7578H9.84375H9.55078H9.49219H1.81641C1.81641 30 1.05469 30 0.527344 29.4727C0.527344 29.4727 0 28.9453 0 28.1836C0 28.1836 0.0585938 24.8438 2.05078 22.3242C2.05078 22.3242 3.98438 19.8633 7.14844 19.043C7.14844 19.043 7.91016 18.9258 8.20312 19.6875L10.3125 28.3008L12.2461 21.0352ZM6.62109 11.25C6.62109 11.25 5.625 9.55078 5.625 7.5C5.625 7.5 5.625 5.44922 6.62109 3.75C6.62109 3.75 7.61719 2.05078 9.375 0.996094C9.375 0.996094 11.1328 0 13.125 0C13.125 0 15.1172 0 16.875 0.996094C16.875 0.996094 18.6328 2.05078 19.6289 3.75C19.6289 3.75 20.625 5.44922 20.625 7.5C20.625 7.5 20.625 9.55078 19.6289 11.25C19.6289 11.25 18.6328 12.9492 16.875 14.0039C16.875 14.0039 15.1172 15 13.125 15C13.125 15 11.1328 15 9.375 14.0039C9.375 14.0039 7.61719 12.9492 6.62109 11.25Z" fill="#F6D659"/>
</svg>
