<svg width="30" height="30" viewBox="0 0 30 30" fill="none" xmlns="http://www.w3.org/2000/svg">
<path d="M10.6233 4.80371C11.0775 4.80371 11.4958 5.04997 11.7163 5.447L13.2453 8.20125C13.4455 8.56188 13.4549 8.99807 13.2704 9.367L11.7974 12.3131C11.7974 12.3131 12.2243 14.5077 14.0108 16.2942C15.7973 18.0807 17.9846 18.5002 17.9846 18.5002L20.9302 17.0274C21.2993 16.8428 21.7358 16.8524 22.0966 17.0529L24.8587 18.5886C25.2553 18.8091 25.5013 19.2273 25.5013 19.6811V22.852C25.5013 24.4668 24.0013 25.6331 22.4713 25.1168C19.3288 24.0565 14.4509 22.0376 11.3592 18.9458C8.26734 15.8541 6.24848 10.9761 5.18814 7.83369C4.67188 6.30363 5.83818 4.80371 7.45297 4.80371H10.6233Z" fill="#F6D659" stroke="#F6D659" stroke-width="0.75" stroke-linejoin="round"/>
</svg>
