<svg width="40" height="40" viewBox="0 0 40 40" fill="none" xmlns="http://www.w3.org/2000/svg">
<path d="M27.7532 39.0598C30.2608 38.0476 32.5178 36.501 34.3669 34.5278C37.3805 31.2631 39.1822 27.0631 39.4711 22.6296C39.7599 18.1961 38.5183 13.7978 35.9538 10.1698L21.0216 21.3992L27.7532 39.0598ZM36.7063 6.68202C36.0735 5.80934 35.3704 4.98984 34.6041 4.23172C32.6468 2.32026 30.2842 0.873931 27.6917 0L21.8236 17.9678L36.7063 6.68202ZM25.1715 38.7117L18.5099 20.988L24.3712 3.02022C21.0442 1.87874 17.4573 1.72825 14.0465 2.58703C10.6356 3.44581 7.54759 5.27688 5.15781 7.85769C1.7566 11.5379 -0.085132 16.3935 0.0198812 21.4036C0.124894 26.4137 2.16847 31.1879 5.72091 34.7223C8.22081 37.2121 11.3943 38.9163 14.8506 39.6251C18.3069 40.334 21.8951 40.0165 25.1732 38.7117H25.1715Z" fill="#131518"/>
<path d="M27.7532 39.0598C30.2608 38.0476 32.5178 36.501 34.3669 34.5278C37.3805 31.2631 39.1822 27.0631 39.4711 22.6296C39.7599 18.1961 38.5183 13.7978 35.9538 10.1698L21.0216 21.3992L27.7532 39.0598ZM36.7063 6.68202C36.0735 5.80934 35.3704 4.98984 34.6041 4.23172C32.6468 2.32026 30.2842 0.873931 27.6917 0L21.8236 17.9678L36.7063 6.68202ZM25.1715 38.7117L18.5099 20.988L24.3712 3.02022C21.0442 1.87874 17.4573 1.72825 14.0465 2.58703C10.6356 3.44581 7.54759 5.27688 5.15781 7.85769C1.7566 11.5379 -0.085132 16.3935 0.0198812 21.4036C0.124894 26.4137 2.16847 31.1879 5.72091 34.7223C8.22081 37.2121 11.3943 38.9163 14.8506 39.6251C18.3069 40.334 21.8951 40.0165 25.1732 38.7117H25.1715Z" fill="white"/>
</svg>
