<svg width="22" height="20" viewBox="0 0 22 20" fill="none" xmlns="http://www.w3.org/2000/svg">
<mask id="mask0_830_6185" style="mask-type:luminance" maskUnits="userSpaceOnUse" x="0" y="0" width="22" height="20">
<path d="M21.9219 0H0.75V20H21.9219V0Z" fill="white"/>
</mask>
<g mask="url(#mask0_830_6185)">
<path d="M10.7109 9.80469V1.09381C10.737 0.703144 10.9453 0.481754 11.3359 0.429688C12.9765 0.455753 14.4479 0.859364 15.75 1.64056C17.0781 2.39583 18.1198 3.4375 18.875 4.76556C19.6562 6.0677 20.0599 7.53909 20.0859 9.17969C20.0339 9.57029 19.8125 9.77862 19.4218 9.80469H10.7109ZM0.0859375 11.0547C0.138021 8.63282 0.919271 6.57555 2.42969 4.88281C3.91406 3.16408 5.82812 2.12241 8.17188 1.75781C8.5625 1.75781 8.78386 1.96615 8.83594 2.38281V11.6797L14.9687 17.8125C15.2291 18.125 15.2031 18.4245 14.8906 18.7109C13.3281 19.8307 11.5182 20.4036 9.46094 20.4297C7.71614 20.4036 6.14062 19.974 4.73438 19.1406C3.32812 18.3073 2.20833 17.1875 1.375 15.7812C0.541668 14.375 0.111979 12.7995 0.0859375 11.0547ZM20.6328 11.6797C21.0495 11.7318 21.2578 11.9531 21.2578 12.3438C20.9193 14.5833 19.9557 16.4323 18.3671 17.8906C18.0807 18.125 17.8073 18.125 17.5468 17.8906L11.3359 11.6797H20.6328Z" fill="#374151"/>
</g>
</svg>
