<svg width="61" height="60" viewBox="0 0 61 60" fill="none" xmlns="http://www.w3.org/2000/svg">
<path d="M49.0465 13.9769L31.2188 7.61776C30.8601 7.4295 30.5082 7.4295 30.148 7.61776L12.3121 13.9851C11.5931 14.3536 11.0625 15.1083 11.0625 15.854V28.7591C11.0625 31.373 11.6014 33.9944 12.4922 36.2399C14.9914 42.7864 20.52 46.1545 25.6888 49.5223C27.1183 50.2763 28.5397 51.2103 29.7893 52.1444C30.148 52.3332 30.5 52.5217 30.8601 52.5217C31.2188 52.5217 31.5696 52.3332 31.7496 52.1444C33.1777 51.2006 34.4204 50.4563 35.8487 49.5223C41.0187 46.1545 46.5475 42.7864 49.0465 36.2399C49.9456 33.9945 50.4762 31.5695 50.4762 28.7591V15.8444C50.4762 15.0986 49.9373 14.3536 49.0465 13.9769ZM47.8506 28.6945C47.8506 31.098 47.4684 33.3098 46.7125 35.3092C44.436 40.9143 39.5009 44.1159 34.1922 47.5277C33.0541 48.3262 31.9158 48.9319 30.7777 49.7298C29.6395 48.9319 28.5013 48.3263 27.3632 47.5277C22.0541 44.3274 17.1192 41.1157 14.8414 35.3092C14.0854 33.3002 13.7032 31.098 13.7032 28.6945V16.2739L30.7777 10.2749L39.3142 13.2744L47.8507 16.2739L47.8506 28.6945ZM16.3287 28.8636C16.3287 30.9214 16.6518 32.8068 17.2924 34.5271C19.2183 39.4985 23.3943 42.2478 27.8866 44.9882C28.8504 45.6721 29.8126 46.1901 30.7762 46.8735V13.0923L16.3287 18.2286V28.8636Z" fill="white"/>
</svg>
