<svg width="40" height="46" viewBox="0 0 40 46" fill="none" xmlns="http://www.w3.org/2000/svg">
<path d="M38.0465 6.97694L20.2188 0.617759C19.8601 0.429497 19.5082 0.429497 19.148 0.617759L1.31207 6.98514C0.593124 7.35364 0.0625 8.10827 0.0625 8.85399V21.7591C0.0625 24.373 0.601445 26.9944 1.49219 29.2399C3.99139 35.7864 9.52 39.1545 14.6888 42.5223C16.1183 43.2763 17.5397 44.2103 18.7893 45.1444C19.148 45.3332 19.5 45.5217 19.8601 45.5217C20.2188 45.5217 20.5696 45.3332 20.7496 45.1444C22.1777 44.2006 23.4204 43.4563 24.8487 42.5223C30.0187 39.1545 35.5475 35.7864 38.0465 29.2399C38.9456 26.9945 39.4762 24.5695 39.4762 21.7591V8.84444C39.4762 8.0986 38.9373 7.35364 38.0465 6.97694ZM36.8506 21.6945C36.8506 24.098 36.4684 26.3098 35.7125 28.3092C33.436 33.9143 28.5009 37.1159 23.1922 40.5277C22.0541 41.3262 20.9158 41.9319 19.7777 42.7298C18.6395 41.9319 17.5013 41.3263 16.3632 40.5277C11.0541 37.3274 6.11916 34.1157 3.84139 28.3092C3.08535 26.3002 2.7032 24.098 2.7032 21.6945V9.27393L19.7777 3.27493L28.3142 6.27443L36.8507 9.27393L36.8506 21.6945ZM5.32873 21.8636C5.32873 23.9214 5.65182 25.8068 6.29236 27.5271C8.21834 32.4985 12.3943 35.2478 16.8866 37.9882C17.8504 38.6721 18.8126 39.1901 19.7762 39.8735V6.09229L5.32873 11.2286V21.8636Z" fill="white"/>
</svg>
