<svg width="16" height="28" viewBox="0 0 16 28" fill="none" xmlns="http://www.w3.org/2000/svg">
<mask id="mask0_830_6230" style="mask-type:luminance" maskUnits="userSpaceOnUse" x="0" y="4" width="16" height="20">
<path d="M15.5 4H0.5V24H15.5V4Z" fill="white"/>
</mask>
<g mask="url(#mask0_830_6230)">
<path d="M2.375 4.42969C1.85417 4.45575 1.41146 4.63803 1.04688 4.97656C0.708333 5.34116 0.526042 5.78389 0.5 6.30469V22.5547C0.526042 23.0755 0.708333 23.5182 1.04688 23.8828C1.41146 24.2214 1.85417 24.4036 2.375 24.4297H6.125V21.3047C6.15104 20.7839 6.33333 20.3411 6.67188 19.9766C7.03646 19.638 7.47917 19.4557 8 19.4297C8.52083 19.4557 8.96354 19.638 9.32812 19.9766C9.66667 20.3411 9.84896 20.7839 9.875 21.3047V24.4297H13.625C14.1458 24.4036 14.5885 24.2214 14.9531 23.8828C15.2916 23.5182 15.4739 23.0755 15.5 22.5547V6.30469C15.4739 5.78389 15.2916 5.34116 14.9531 4.97656C14.5885 4.63803 14.1458 4.45575 13.625 4.42969H2.375ZM3 13.8047C3.02604 13.4141 3.23437 13.2058 3.625 13.1797H4.875C5.26563 13.2058 5.47396 13.4141 5.5 13.8047V15.0547C5.47396 15.4453 5.26563 15.6536 4.875 15.6797H3.625C3.23437 15.6536 3.02604 15.4453 3 15.0547V13.8047ZM7.375 13.1797H8.625C9.01563 13.2058 9.22396 13.4141 9.25 13.8047V15.0547C9.22396 15.4453 9.01563 15.6536 8.625 15.6797H7.375C6.98437 15.6536 6.77604 15.4453 6.75 15.0547V13.8047C6.77604 13.4141 6.98437 13.2058 7.375 13.1797ZM10.5 13.8047C10.5261 13.4141 10.7344 13.2058 11.125 13.1797H12.375C12.7656 13.2058 12.9739 13.4141 13 13.8047V15.0547C12.9739 15.4453 12.7656 15.6536 12.375 15.6797H11.125C10.7344 15.6536 10.5261 15.4453 10.5 15.0547V13.8047ZM3.625 8.17969H4.875C5.26563 8.20575 5.47396 8.41409 5.5 8.80469V10.0547C5.47396 10.4453 5.26563 10.6536 4.875 10.6797H3.625C3.23437 10.6536 3.02604 10.4453 3 10.0547V8.80469C3.02604 8.41409 3.23437 8.20575 3.625 8.17969ZM6.75 8.80469C6.77604 8.41409 6.98437 8.20575 7.375 8.17969H8.625C9.01563 8.20575 9.22396 8.41409 9.25 8.80469V10.0547C9.22396 10.4453 9.01563 10.6536 8.625 10.6797H7.375C6.98437 10.6536 6.77604 10.4453 6.75 10.0547V8.80469ZM11.125 8.17969H12.375C12.7656 8.20575 12.9739 8.41409 13 8.80469V10.0547C12.9739 10.4453 12.7656 10.6536 12.375 10.6797H11.125C10.7344 10.6536 10.5261 10.4453 10.5 10.0547V8.80469C10.5261 8.41409 10.7344 8.20575 11.125 8.17969Z" fill="#333333"/>
</g>
</svg>
