<svg width="27" height="36" viewBox="0 0 27 36" fill="none" xmlns="http://www.w3.org/2000/svg">
<path fill-rule="evenodd" clip-rule="evenodd" d="M4.5 0C2.60156 0.0703125 1.33594 1.33594 1.33594 1.33594C0.0703125 2.60156 0 4.5 0 4.5V31.5C0.0703125 33.3984 1.33594 34.6641 1.33594 34.6641C2.60156 35.9297 4.5 36 4.5 36H22.5C24.3984 35.9297 25.6641 34.6641 25.6641 34.6641C26.9297 33.3984 27 31.5 27 31.5V11.25H18C17.0156 11.25 16.3828 10.6172 16.3828 10.6172C15.75 9.98438 15.75 9 15.75 9V0H4.5ZM10.125 4.5H5.625C5.625 4.5 4.57031 4.57031 4.5 5.625C4.5 5.625 4.57031 6.67969 5.625 6.75H10.125C10.125 6.75 11.1797 6.67969 11.25 5.625C11.25 5.625 11.1797 4.57031 10.125 4.5ZM5.625 9H10.125C11.1797 9.07031 11.25 10.125 11.25 10.125C11.1797 11.1797 10.125 11.25 10.125 11.25H5.625C4.57031 11.1797 4.5 10.125 4.5 10.125C4.57031 9.07031 5.625 9 5.625 9ZM20.25 15.75H6.75C6.75 15.75 5.76562 15.75 5.13281 16.3828C5.13281 16.3828 4.5 17.0156 4.5 18V22.5C4.5 22.5 4.5 23.4844 5.13281 24.1172C5.13281 24.1172 5.76562 24.75 6.75 24.75H20.25C20.25 24.75 21.2344 24.75 21.8672 24.1172C21.8672 24.1172 22.5 23.4844 22.5 22.5V18C22.5 18 22.5 17.0156 21.8672 16.3828C21.8672 16.3828 21.2344 15.75 20.25 15.75ZM6.75 18V22.5H20.25V18H6.75ZM21.375 29.25H16.875C16.875 29.25 15.8203 29.3203 15.75 30.375C15.75 30.375 15.8203 31.4297 16.875 31.5H21.375C21.375 31.5 22.4297 31.4297 22.5 30.375C22.5 30.375 22.4297 29.3203 21.375 29.25ZM27 9L18 0V9H27Z" fill="#F6D659"/>
</svg>
