<svg width="20" height="20" viewBox="0 0 20 20" fill="none" xmlns="http://www.w3.org/2000/svg">
<mask id="mask0_830_6207" style="mask-type:luminance" maskUnits="userSpaceOnUse" x="0" y="0" width="20" height="20">
<path d="M20 0H0V20H20V0Z" fill="white"/>
</mask>
<g mask="url(#mask0_830_6207)">
<path d="M1.25 4.17979H13.75V1.67979C13.7761 1.13292 14.0365 0.742252 14.5312 0.507853C15.026 0.325586 15.4817 0.416697 15.8984 0.781229L19.6484 4.53123C19.8828 4.7917 20 5.09126 20 5.42979C20 5.76832 19.8828 6.06777 19.6484 6.32817L15.8984 10.0782C15.4817 10.4428 15.026 10.5209 14.5312 10.3125C14.0365 10.1042 13.7761 9.72666 13.75 9.17979V6.67979H1.25C0.885417 6.67979 0.585938 6.56257 0.351562 6.32817C0.117188 6.09383 0 5.79439 0 5.42979C0 5.06519 0.117188 4.76563 0.351562 4.53123C0.585938 4.2969 0.885417 4.17979 1.25 4.17979ZM18.75 14.1797C19.1146 14.1797 19.414 14.2969 19.6484 14.5313C19.8828 14.7657 20 15.0651 20 15.4297C20 15.7943 19.8828 16.0938 19.6484 16.3282C19.414 16.5625 19.1146 16.6797 18.75 16.6797H6.25V19.1797C6.22396 19.7266 5.96354 20.1172 5.46875 20.3516C4.97396 20.5339 4.51823 20.4427 4.10156 20.0782L0.351562 16.3282C0.117188 16.0677 0 15.7683 0 15.4297C0 15.0912 0.117188 14.8047 0.351562 14.5704L4.10156 10.8204C4.51823 10.4298 4.97396 10.3386 5.46875 10.5469C5.96354 10.7552 6.22396 11.1329 6.25 11.6797V14.1797H18.75Z" fill="#374151"/>
</g>
</svg>
