<svg width="41" height="32" viewBox="0 0 41 32" fill="none" xmlns="http://www.w3.org/2000/svg">
<path fill-rule="evenodd" clip-rule="evenodd" d="M0 6.75V27C0.0703125 28.8984 1.33594 30.1641 1.33594 30.1641C2.60156 31.4297 4.5 31.5 4.5 31.5H36C37.8984 31.4297 39.1641 30.1641 39.1641 30.1641C40.4297 28.8984 40.5 27 40.5 27V6.75H0ZM1.33594 1.33594C0.0703125 2.60156 0 4.5 0 4.5H40.5C40.4297 2.60156 39.1641 1.33594 39.1641 1.33594C37.8984 0.0703125 36 0 36 0H4.5C2.60156 0.0703125 1.33594 1.33594 1.33594 1.33594ZM5.625 23.625C5.625 23.625 4.57031 24.6797 4.5 26.2266C4.5 26.2266 4.57031 26.9297 5.27344 27H19.4766C19.4766 27 20.1797 26.9297 20.25 26.2266C20.25 26.2266 20.1797 24.6797 19.125 23.625C19.125 23.625 18.0703 22.5703 16.5234 22.5H8.22656C8.22656 22.5 6.67969 22.5703 5.625 23.625ZM12.375 11.25C14.9062 11.3203 16.2422 13.5 16.2422 13.5C17.5078 15.75 16.2422 18 16.2422 18C14.9062 20.1797 12.375 20.25 12.375 20.25C9.84375 20.1797 8.50781 18 8.50781 18C7.24219 15.75 8.50781 13.5 8.50781 13.5C9.84375 11.3203 12.375 11.25 12.375 11.25ZM25.875 11.25C25.875 11.25 24.8203 11.3203 24.75 12.375C24.75 12.375 24.8203 13.4297 25.875 13.5H34.875C34.875 13.5 35.9297 13.4297 36 12.375C36 12.375 35.9297 11.3203 34.875 11.25H25.875ZM24.75 16.875C24.8203 15.8203 25.875 15.75 25.875 15.75H34.875C35.9297 15.8203 36 16.875 36 16.875C35.9297 17.9297 34.875 18 34.875 18H25.875C24.8203 17.9297 24.75 16.875 24.75 16.875ZM25.875 20.25C25.875 20.25 24.8203 20.3203 24.75 21.375C24.75 21.375 24.8203 22.4297 25.875 22.5H34.875C34.875 22.5 35.9297 22.4297 36 21.375C36 21.375 35.9297 20.3203 34.875 20.25H25.875Z" fill="#F6D659"/>
</svg>
