<svg width="34" height="27" viewBox="0 0 34 27" fill="none" xmlns="http://www.w3.org/2000/svg">
<path d="M12.1875 2.8125C12.2461 1.64062 13.0078 0.820312 13.0078 0.820312C13.8281 0.0585938 15 0 15 0H18.75C19.9219 0.0585938 20.7422 0.820312 20.7422 0.820312C21.5039 1.64062 21.5625 2.8125 21.5625 2.8125V6.5625C21.5039 7.73438 20.7422 8.55469 20.7422 8.55469C19.9219 9.31641 18.75 9.375 18.75 9.375H18.2812V11.7188H27.1875C28.5938 11.7773 29.5312 12.6562 29.5312 12.6562C30.4102 13.5938 30.4688 15 30.4688 15V16.875H30.9375C32.1094 16.9336 32.9297 17.6953 32.9297 17.6953C33.6914 18.5156 33.75 19.6875 33.75 19.6875V23.4375C33.6914 24.6094 32.9297 25.4297 32.9297 25.4297C32.1094 26.1914 30.9375 26.25 30.9375 26.25H27.1875C26.0156 26.1914 25.1953 25.4297 25.1953 25.4297C24.4336 24.6094 24.375 23.4375 24.375 23.4375V19.6875C24.4336 18.5156 25.1953 17.6953 25.1953 17.6953C26.0156 16.9336 27.1875 16.875 27.1875 16.875H27.6562V15C27.5977 14.5898 27.1875 14.5312 27.1875 14.5312H18.2812V16.875H18.75C19.9219 16.9336 20.7422 17.6953 20.7422 17.6953C21.5039 18.5156 21.5625 19.6875 21.5625 19.6875V23.4375C21.5039 24.6094 20.7422 25.4297 20.7422 25.4297C19.9219 26.1914 18.75 26.25 18.75 26.25H15C13.8281 26.1914 13.0078 25.4297 13.0078 25.4297C12.2461 24.6094 12.1875 23.4375 12.1875 23.4375V19.6875C12.2461 18.5156 13.0078 17.6953 13.0078 17.6953C13.8281 16.9336 15 16.875 15 16.875H15.4688V14.5312H6.5625C6.15234 14.5898 6.09375 15 6.09375 15V16.875H6.5625C7.73438 16.9336 8.55469 17.6953 8.55469 17.6953C9.31641 18.5156 9.375 19.6875 9.375 19.6875V23.4375C9.31641 24.6094 8.55469 25.4297 8.55469 25.4297C7.73438 26.1914 6.5625 26.25 6.5625 26.25H2.8125C1.64062 26.1914 0.820312 25.4297 0.820312 25.4297C0.0585938 24.6094 0 23.4375 0 23.4375V19.6875C0.0585938 18.5156 0.820312 17.6953 0.820312 17.6953C1.64062 16.9336 2.8125 16.875 2.8125 16.875H3.28125V15C3.33984 13.5938 4.21875 12.6562 4.21875 12.6562C5.15625 11.7773 6.5625 11.7188 6.5625 11.7188H15.4688V9.375H15C13.8281 9.31641 13.0078 8.55469 13.0078 8.55469C12.2461 7.73438 12.1875 6.5625 12.1875 6.5625V2.8125Z" fill="#F6D659"/>
</svg>
