<svg width="19" height="20" viewBox="0 0 19 20" fill="none" xmlns="http://www.w3.org/2000/svg">
<mask id="mask0_830_6196" style="mask-type:luminance" maskUnits="userSpaceOnUse" x="0" y="0" width="19" height="20">
<path d="M18.8281 0H0V20H18.8281V0Z" fill="white"/>
</mask>
<g mask="url(#mask0_830_6196)">
<path d="M8.82823 0.429688C9.01051 0.429688 9.17979 0.468742 9.33604 0.546875L16.7189 3.67188C17.1615 3.85414 17.5131 4.14064 17.7736 4.53131C18.0601 4.92191 18.2033 5.37758 18.2033 5.89838C18.2293 7.22651 18.0079 8.78904 17.5392 10.5859C17.0704 12.3828 16.224 14.1276 15 15.8203C13.8022 17.5391 12.0835 18.9583 9.84385 20.0781C9.16676 20.3906 8.48969 20.3906 7.8126 20.0781C5.57302 18.9583 3.85427 17.5391 2.65635 15.8203C1.43239 14.1276 0.586038 12.3828 0.11729 10.5859C-0.351459 8.78904 -0.572814 7.22651 -0.546772 5.89838C-0.546772 5.37758 -0.403543 4.92191 -0.117085 4.53131C0.143332 4.14064 0.494895 3.85414 0.937603 3.67188L8.32042 0.546875C8.47667 0.468742 8.64594 0.429688 8.82823 0.429688ZM8.82823 3.04688V17.8125C10.5991 16.901 11.9923 15.7422 13.0079 14.3359C13.9975 12.9297 14.7006 11.4844 15.1173 10C15.508 8.4896 15.7033 7.13543 15.7033 5.9375L8.82823 3.04688Z" fill="#374151"/>
</g>
</svg>
