<svg width="38" height="27" viewBox="0 0 38 27" fill="none" xmlns="http://www.w3.org/2000/svg">
<path fill-rule="evenodd" clip-rule="evenodd" d="M2.46094 23.7891C2.46094 23.7891 4.86328 26.1328 8.4375 26.25H30C30 26.25 33.1641 26.1914 35.332 24.082C35.332 24.082 37.4414 21.9141 37.5 18.75C37.5 18.75 37.4414 15.9961 35.8008 14.0039C35.8008 14.0039 34.1016 11.9531 31.5234 11.4258C31.5234 11.4258 31.875 10.4297 31.875 9.375C31.875 9.375 31.8164 6.97266 30.2344 5.39062C30.2344 5.39062 28.6523 3.80859 26.25 3.75C26.25 3.75 24.4922 3.75 23.1445 4.6875C23.1445 4.6875 21.8555 2.57812 19.7461 1.28906C19.7461 1.28906 17.6367 0.0585938 15 0C15 0 11.0156 0.117188 8.37891 2.75391C8.37891 2.75391 5.74219 5.39062 5.625 9.375V9.84375C5.625 9.84375 3.10547 10.7812 1.58203 12.8906C1.58203 12.8906 0.0585938 15 0 17.8125C0 17.8125 0.117188 21.3867 2.46094 23.7891ZM13.0664 15.5273C13.0664 15.5273 12.2461 14.5312 13.0664 13.5352L17.7539 8.84766C17.7539 8.84766 18.75 8.02734 19.7461 8.84766L24.4336 13.5352C24.4336 13.5352 25.2539 14.5312 24.4336 15.5273C24.4336 15.5273 23.4375 16.3477 22.4414 15.5273L20.1562 13.2422V21.0938C20.1562 21.0938 20.0391 22.3828 18.75 22.5C18.75 22.5 17.4609 22.3828 17.3438 21.0938V13.2422L15.0586 15.5273C15.0586 15.5273 14.0625 16.3477 13.0664 15.5273Z" fill="#F6D659"/>
</svg>
