<svg width="36" height="36" viewBox="0 0 36 36" fill="none" xmlns="http://www.w3.org/2000/svg">
<path fill-rule="evenodd" clip-rule="evenodd" d="M0 18C0.0703125 13.0781 2.39062 9 2.39062 9C4.78125 4.92188 9 2.39062 9 2.39062C13.2891 0 18 0 18 0C22.7109 0 27 2.39062 27 2.39062C31.2188 4.92188 33.6094 9 33.6094 9C35.9297 13.0781 36 18 36 18C35.9297 22.9219 33.6094 27 33.6094 27C31.2188 31.0781 27 33.6094 27 33.6094C22.7109 36 18 36 18 36C13.2891 36 9 33.6094 9 33.6094C4.78125 31.0781 2.39062 27 2.39062 27C0.0703125 22.9219 0 18 0 18ZM28.0547 27C26.8594 24.9609 24.8203 23.7656 24.8203 23.7656C22.7812 22.5 20.25 22.5 20.25 22.5H15.75C13.2188 22.5 11.1797 23.7656 11.1797 23.7656C9.14062 24.9609 7.94531 27 7.94531 27C9.84375 29.1094 12.375 30.3047 12.375 30.3047C14.9766 31.5 18 31.5 18 31.5C21.0234 31.5 23.625 30.3047 23.625 30.3047C26.1562 29.1094 28.0547 27 28.0547 27ZM22.3594 16.5938C22.3594 16.5938 20.8828 19.0547 18 19.125C18 19.125 15.1172 19.0547 13.6406 16.5938C13.6406 16.5938 12.2344 14.0625 13.6406 11.5312C13.6406 11.5312 15.1172 9.07031 18 9C18 9 20.8828 9.07031 22.3594 11.5312C22.3594 11.5312 23.7656 14.0625 22.3594 16.5938Z" fill="#F6D659"/>
</svg>
